# xmcd
#
# Track frame offsets:
#	150
#	16294
#	32521
#	46851
#	60752
#	76506
#	91030
#	106743
#	120728
#	135658
#	150296
#	166021
#	199100
#	214645
#	229972
#	241886
#	256155
#	271273
#	283667
#	300411
#
# Disc length: 4252 seconds
#
# Revision: 1
# Processed by: cddbd v1.5.2PL0 Copyright (c) Steve Scherf et al.
# Submitted via: audiograbber 1.83.01
#
DISCID=e4109a14
DTITLE=Various Artist - Country To Country Vol 4 CD1
DYEAR=2019
DGENRE=Country
TTITLE0=Brett Eldredge - Love Someone
TTITLE1=Cam - Diane
TTITLE2=Lyle Lovett - If I Had A Boat
TTITLE3=Hunter Hayes - This Girl
TTITLE4=Ashley McBride - Girl Goin' Nowhere
TTITLE5=Dustin Lynch - Good Girl
TTITLE6=The Wandering Hearts - Devil
TTITLE7=Chase Rice - Eyes On You
TTITLE8=Jimmie Allen - Best Shot
TTITLE9=Caroline Jones - Your Heart is Mine
TTITLE10=Catherine McGrath ft. Hunter Hayes - Don't Let Me Forget
TTITLE11=Lukas Nelson and Promise of the Real - Set Me Down On A Cloud
TTITLE12=Abby Anderson - Make Him Wait
TTITLE13=James Barker Band - Good Together
TTITLE14=Marty Stuart - Lost On The Desert
TTITLE15=Old Domiion - Make It Sweet
TTITLE16=Walker Hayes - You Broke Up with Me
TTITLE17=Jillian Jacqueline - TRAGIC
TTITLE18=Michael Ray - One That Got Away
TTITLE19=Sugarland - Stuck Like Glue
EXTD=
EXTT0=
EXTT1=
EXTT2=
EXTT3=
EXTT4=
EXTT5=
EXTT6=
EXTT7=
EXTT8=
EXTT9=
EXTT10=
EXTT11=
EXTT12=
EXTT13=
EXTT14=
EXTT15=
EXTT16=
EXTT17=
EXTT18=
EXTT19=
PLAYORDER=
